<svg xmlns="http://www.w3.org/2000/svg" width="48" height="48" viewBox="0 0 48 48"><defs><clipPath id="c1"><path d="M0,0h48v48h-48z"/></clipPath></defs><g clip-path="url(#c1)"><path d="M26.503,23.91C26.423,22.933 26.545,21.95 26.864,21.024C27.182,20.097 27.689,19.246 28.353,18.525C29.016,17.804 29.822,17.229 30.72,16.835C31.617,16.442 32.586,16.239 33.566,16.239C34.546,16.239 35.515,16.442 36.413,16.835C37.31,17.229 38.116,17.804 38.78,18.525C39.444,19.246 39.951,20.097 40.269,21.024C40.587,21.95 40.71,22.933 40.629,23.91" fill="#FFDC00"/><path d="M1,40.832H46.8" fill="none" stroke="#5E23DC" stroke-width="0.5" stroke-linecap="round" stroke-linejoin="round"/><path d="M18.018,40.783V15.714H29.637V38.999" fill="none" stroke="#5E23DC" stroke-width="0.5" stroke-linecap="round" stroke-linejoin="round"/><path d="M11.896,40.976V25.404H18.066" fill="none" stroke="#5E23DC" stroke-width="0.5" stroke-linecap="round" stroke-linejoin="round"/><path d="M35.856,40.639V25.404H31.18" fill="none" stroke="#5E23DC" stroke-width="0.5" stroke-linecap="round" stroke-linejoin="round"/><path d="M29.493,15.714H30.746V13.062H16.91V15.714H17.97" fill="none" stroke="#5E23DC" stroke-width="0.5" stroke-linecap="round" stroke-linejoin="round"/><path d="M26.986,13.062V11.037H20.622V13.062" fill="none" stroke="#5E23DC" stroke-width="0.5" stroke-linecap="round" stroke-linejoin="round"/><path d="M23.804,10.073V8" fill="none" stroke="#5E23DC" stroke-width="0.5" stroke-linecap="round" stroke-linejoin="round"/><path d="M23.9,19.04V39.578" fill="none" stroke="#5E23DC" stroke-width="0.5" stroke-linecap="round" stroke-linejoin="round"/><path d="M20.863,21.692V37.119" fill="none" stroke="#5E23DC" stroke-width="0.5" stroke-linecap="round" stroke-linejoin="round"/><path d="M26.889,21.692V37.119" fill="none" stroke="#5E23DC" stroke-width="0.5" stroke-linecap="round" stroke-linejoin="round"/><path d="M15.945,27.766H14.017V29.004H15.945V30.241H14.017V31.479H15.945V32.587" fill="none" stroke="#5E23DC" stroke-width="0.5" stroke-linecap="round"/><path d="M33.783,27.284H31.855V28.522H33.783V29.759H31.855V30.996H33.783V32.105" fill="none" stroke="#5E23DC" stroke-width="0.5" stroke-linecap="round"/><path d="M18.356,14.267H29.203" fill="none" stroke="#5E23DC" stroke-width="0.5" stroke-linecap="round"/></g></svg>