<svg xmlns="http://www.w3.org/2000/svg" width="24" height="24" viewBox="0 0 24 24"><defs><clipPath id="c1"><path d="M12,0L12,0A12,12 0,0 1,24 12L24,12A12,12 0,0 1,12 24L12,24A12,12 0,0 1,0 12L0,12A12,12 0,0 1,12 0z"/></clipPath></defs><g clip-path="url(#c1)"><path d="M16.571,19.571V15C16.571,15 13.882,16 12,16C10.118,16 7.429,15 7.429,15V19.571" fill="none" stroke="#434343" stroke-width="1" stroke-linejoin="round"/><path d="M20,19.571V18.429C20,16.535 18.465,15 16.571,15V15V19.571" fill="none" stroke="#434343" stroke-width="1" stroke-linecap="round"/><path d="M7.429,19.571V15V15C5.535,15 4,16.535 4,18.429V19.571" fill="none" stroke="#434343" stroke-width="1" stroke-linecap="round"/><path d="M15.983,10C15.969,10.247 15.947,10.536 15.916,10.825C15.858,11.373 15.777,11.835 15.696,12.031C15.495,12.516 15.2,12.957 14.828,13.328C14.457,13.7 14.016,13.995 13.531,14.196C13.045,14.396 12.525,14.5 12,14.5C11.475,14.5 10.955,14.396 10.469,14.196C9.984,13.995 9.543,13.7 9.172,13.328C8.8,12.957 8.505,12.516 8.304,12.031C8.223,11.835 8.142,11.373 8.084,10.825C8.053,10.536 8.031,10.247 8.017,10L12,10H15.983Z" fill="none" stroke="#434343" stroke-width="1" stroke-linejoin="round"/><path d="M8,8.5C8,7.963 8.103,7.931 8.304,7.434C8.505,6.938 8.8,6.487 9.172,6.107C9.543,5.727 9.984,5.426 10.469,5.22C10.667,4.909 10.8,4 12,4C13.2,4 13.333,4.909 13.531,5.22C14.016,5.426 14.457,5.727 14.828,6.107C15.2,6.487 15.495,6.938 15.696,7.434C15.896,7.931 16,7.963 16,8.5" fill="none" stroke="#434343" stroke-width="1" stroke-linecap="round" stroke-linejoin="round"/><path d="M16,8.5H16.737V8.5C16.882,8.5 17,8.618 17,8.763V9.25C17,9.664 16.664,10 16.25,10H12H7.75C7.336,10 7,9.664 7,9.25V8.763C7,8.618 7.118,8.5 7.263,8.5V8.5H8" fill="none" stroke="#434343" stroke-width="1" stroke-linejoin="round"/><path d="M13.5,5.5L12.785,6.215M10.414,5.414L11.17,6.17" fill="none" stroke="#434343" stroke-width="1" stroke-linecap="round" stroke-linejoin="round"/></g></svg>