<svg xmlns="http://www.w3.org/2000/svg" width="24" height="24" viewBox="0 0 24 24"><defs><clipPath id="c1"><path d="M12,0L12,0A12,12 0,0 1,24 12L24,12A12,12 0,0 1,12 24L12,24A12,12 0,0 1,0 12L0,12A12,12 0,0 1,12 0z"/></clipPath></defs><g clip-path="url(#c1)"><path d="M17.5,6.5C17.224,6.5 17,6.724 17,7C17,7.276 17.224,7.5 17.5,7.5V6.5ZM17.5,7.5H18V6.5H17.5V7.5ZM19.5,9V17.5H20.5V9H19.5ZM19,18H15V19H19V18ZM19.5,17.5C19.5,17.776 19.276,18 19,18V19C19.828,19 20.5,18.328 20.5,17.5H19.5ZM18,7.5C18.828,7.5 19.5,8.172 19.5,9H20.5C20.5,7.619 19.381,6.5 18,6.5V7.5Z" fill="#434343"/><path d="M8.5,6C8.5,5.172 9.172,4.5 10,4.5H14C14.828,4.5 15.5,5.172 15.5,6V18.5H8.5V6Z" fill="none" stroke="#434343" stroke-width="1"/><path d="M10.5,7.25L13.5,7.25A0.25,0.25 0,0 1,13.75 7.5L13.75,7.5A0.25,0.25 0,0 1,13.5 7.75L10.5,7.75A0.25,0.25 0,0 1,10.25 7.5L10.25,7.5A0.25,0.25 0,0 1,10.5 7.25z" fill="none" stroke="#434343" stroke-width="0.5"/><path d="M10.5,10.25L13.5,10.25A0.25,0.25 0,0 1,13.75 10.5L13.75,10.5A0.25,0.25 0,0 1,13.5 10.75L10.5,10.75A0.25,0.25 0,0 1,10.25 10.5L10.25,10.5A0.25,0.25 0,0 1,10.5 10.25z" fill="none" stroke="#434343" stroke-width="0.5"/><path d="M10.5,13.25L13.5,13.25A0.25,0.25 0,0 1,13.75 13.5L13.75,13.5A0.25,0.25 0,0 1,13.5 13.75L10.5,13.75A0.25,0.25 0,0 1,10.25 13.5L10.25,13.5A0.25,0.25 0,0 1,10.5 13.25z" fill="none" stroke="#434343" stroke-width="0.5"/><path d="M6.5,7.5C6.776,7.5 7,7.276 7,7C7,6.724 6.776,6.5 6.5,6.5V7.5ZM6,7.5H6.5V6.5H6V7.5ZM9,18H5V19H9V18ZM4.5,17.5V9H3.5V17.5H4.5ZM5,18C4.724,18 4.5,17.776 4.5,17.5H3.5C3.5,18.328 4.172,19 5,19V18ZM6,6.5C4.619,6.5 3.5,7.619 3.5,9H4.5C4.5,8.172 5.172,7.5 6,7.5V6.5Z" fill="#434343"/></g></svg>